<svg xmlns="http://www.w3.org/2000/svg" version="1.1" xmlns:xlink="http://www.w3.org/1999/xlink" xmlns:svgjs="http://svgjs.dev/svgjs" width="1500" height="511" viewBox="0 0 1500 511"><g transform="matrix(1,0,0,1,-0.9090909090909918,-0.7251033130186215)"><svg viewBox="0 0 396 135" data-background-color="#0093fb" preserveAspectRatio="xMidYMid meet" height="511" width="1500" xmlns="http://www.w3.org/2000/svg" xmlns:xlink="http://www.w3.org/1999/xlink"><g id="tight-bounds" transform="matrix(1,0,0,1,0.2400000000000091,0.19156349756852364)"><svg viewBox="0 0 395.52 134.61665002610775" height="134.61665002610775" width="395.52"><g><svg viewBox="0 0 395.52 134.61665002610775" height="134.61665002610775" width="395.52"><g transform="matrix(1,0,0,1,0,88.38560064752325)"><svg viewBox="0 0 395.52 46.2310493785845" height="46.2310493785845" width="395.52"><g id="textblocktransform"><svg viewBox="0 0 395.52 46.2310493785845" height="46.2310493785845" width="395.52" id="textblock"><g><svg viewBox="0 0 395.52 46.2310493785845" height="46.2310493785845" width="395.52"><g transform="matrix(1,0,0,1,0,0)"><svg width="395.52" viewBox="2.586616880044938 -34.97594769561954 397.1533894360485 46.4219505817402" height="46.2310493785845" data-palette-color="#ffffff"><path d="M14.052 11.252c-2.943 0.314-5.119 0.247-6.528-0.199-1.402-0.447-2.392-1.374-2.972-2.781-0.58-1.413-1.035-3.671-1.365-6.774v0c-0.38-3.566-0.579-7.068-0.597-10.505-0.024-3.437 0.088-7.418 0.336-11.943v0c0.018-0.464 0.19-0.855 0.519-1.172 0.328-0.317 0.771-0.505 1.327-0.564v0c1.18-0.126 1.828 0.352 1.943 1.432v0c0.025 0.232 0.025 0.396 0.002 0.493v0c-0.256 5.652-0.391 9.884-0.406 12.695-0.015 2.817 0.157 5.91 0.516 9.277v0c0.23 2.154 0.519 3.703 0.867 4.644 0.348 0.935 0.934 1.556 1.757 1.865 0.831 0.314 2.129 0.377 3.892 0.188v0c1.83-0.195 3.43-0.466 4.801-0.813 1.371-0.347 3.126-0.866 5.265-1.557v0c0.129-0.047 0.29-0.081 0.482-0.102v0c0.524-0.056 0.926 0.069 1.206 0.374 0.28 0.299 0.446 0.693 0.499 1.184v0c0.056 0.524-0.063 0.949-0.357 1.275-0.293 0.333-0.776 0.616-1.449 0.849v0c-2.966 1.047-6.212 1.758-9.738 2.134zM52.988 4.261c0.464 0.025 0.821 0.126 1.072 0.304 0.243 0.172 0.389 0.52 0.437 1.044v0c0.045 0.491-0.042 0.898-0.261 1.219-0.219 0.315-0.541 0.491-0.965 0.53v0c-1.341 0.122-2.35 0-3.026-0.367-0.683-0.366-1.307-1.119-1.873-2.26v0c-1.256 2.524-3.766 3.958-7.531 4.301v0c-2.656 0.242-4.854-0.15-6.594-1.176-1.748-1.032-3.056-2.426-3.925-4.181-0.869-1.748-1.396-3.638-1.581-5.67v0c-0.2-2.198 0.053-4.303 0.76-6.315 0.707-2.012 1.867-3.685 3.479-5.017 1.612-1.338 3.613-2.117 6.003-2.334v0c1.64-0.149 3.097 0.049 4.372 0.596 1.268 0.541 2.3 1.37 3.099 2.489v0l0.041-1.641c-0.044-1.214 0.459-1.869 1.508-1.964v0c0.657-0.06 1.173 0.05 1.547 0.331 0.366 0.275 0.539 0.63 0.519 1.067v0l-0.038 1.238c-0.107 1.395-0.143 2.835-0.109 4.318v0c0.021 1.257 0.126 2.931 0.317 5.022v0l0.309 3.396c0.128 1.407 0.263 2.443 0.404 3.106 0.141 0.663 0.36 1.162 0.658 1.497 0.292 0.335 0.751 0.491 1.378 0.467zM46.809-0.519c-0.107-1.543-0.271-3.527-0.492-5.949v0c-0.146-1.607-0.61-2.877-1.391-3.81-0.775-0.94-1.673-1.578-2.695-1.913-1.021-0.335-1.977-0.463-2.866-0.382v0c-1.733 0.158-3.135 0.781-4.208 1.87-1.072 1.088-1.814 2.394-2.223 3.918-0.404 1.523-0.54 3.005-0.409 4.445v0c0.209 2.291 0.96 4.294 2.255 6.01 1.294 1.716 3.236 2.457 5.825 2.221v0c1.932-0.176 3.483-0.823 4.653-1.94 1.171-1.111 1.688-2.601 1.551-4.47zM85.766 4.792c-1.251 0.083-2.572-0.802-3.964-2.654-1.392-1.852-2.768-4.38-4.13-7.584v0c-0.977-2.24-1.827-4.493-2.551-6.756-0.724-2.257-1.118-3.878-1.184-4.863v0c-0.041-0.625 0.097-1.102 0.417-1.43 0.325-0.336 0.784-0.523 1.376-0.562v0c0.526-0.035 0.954 0.077 1.285 0.336 0.331 0.259 0.546 0.632 0.645 1.119v0c0.552 2.897 1.6 6.318 3.144 10.265v0c0.866 2.087 1.77 3.925 2.71 5.514 0.946 1.581 1.586 2.36 1.919 2.338v0c0.392-0.026 0.946-0.844 1.661-2.455 0.715-1.611 1.426-3.595 2.132-5.954v0c1.257-4.332 1.941-7.935 2.051-10.809v0c0.034-0.497 0.204-0.902 0.511-1.216 0.306-0.321 0.722-0.499 1.247-0.533v0c0.592-0.039 1.063 0.11 1.413 0.447 0.357 0.344 0.555 0.808 0.593 1.394v0c0.067 1.018-0.115 2.653-0.547 4.907-0.426 2.253-1.018 4.607-1.778 7.063v0c-2.306 7.468-4.622 11.28-6.95 11.433zM105.615-24.078c-0.859 0.048-1.597-0.198-2.214-0.738-0.625-0.546-0.962-1.262-1.011-2.147v0c-0.049-0.885 0.206-1.631 0.767-2.236 0.553-0.612 1.293-0.943 2.218-0.995v0c0.885-0.049 1.63 0.19 2.233 0.717 0.604 0.527 0.93 1.233 0.979 2.119v0c0.049 0.885-0.212 1.641-0.785 2.267-0.573 0.626-1.302 0.964-2.187 1.013zM106.414 3.54c-0.592 0.033-1.07-0.087-1.433-0.36-0.362-0.274-0.557-0.657-0.584-1.15v0l-0.668-20.965c-0.031-0.559 0.115-0.995 0.438-1.306 0.33-0.312 0.791-0.485 1.383-0.518v0c0.592-0.033 1.07 0.087 1.432 0.361 0.356 0.274 0.55 0.707 0.584 1.299v0l0.675 20.915c-0.004 0.528-0.171 0.938-0.503 1.23-0.324 0.298-0.765 0.463-1.324 0.494zM129.569 2.999c-2.691 0.114-5.04-0.371-7.047-1.453-2.001-1.083-3.541-2.566-4.622-4.449-1.087-1.882-1.678-3.956-1.774-6.221v0c-0.098-2.331 0.337-4.498 1.307-6.501 0.97-1.996 2.4-3.611 4.289-4.845 1.89-1.228 4.1-1.895 6.631-2.002v0c2.231-0.094 4.252 0.271 6.062 1.095 1.817 0.831 3.252 2.031 4.306 3.602 1.054 1.564 1.624 3.381 1.711 5.452v0c0.042 0.986-0.045 1.69-0.261 2.113-0.209 0.416-0.773 0.66-1.69 0.732v0l-18.767 1.193c0.053 1.246 0.486 2.508 1.301 3.789 0.808 1.287 1.931 2.344 3.367 3.171 1.43 0.827 3.067 1.202 4.912 1.123v0c1.379-0.058 2.552-0.315 3.521-0.769 0.969-0.448 1.722-0.947 2.259-1.497 0.537-0.55 1.179-1.318 1.924-2.303v0c0.214-0.309 0.567-0.474 1.06-0.495v0c0.433-0.018 0.843 0.131 1.23 0.448 0.393 0.31 0.599 0.679 0.617 1.105v0c0.014 0.333-0.101 0.685-0.345 1.056v0c-0.991 1.49-2.215 2.776-3.671 3.858-1.449 1.082-3.556 1.682-6.32 1.798zM119.589-11.242l17.136-1.174c0.326-0.014 0.48-0.25 0.461-0.71v0c-0.083-1.972-0.94-3.54-2.571-4.706-1.624-1.166-3.635-1.698-6.033-1.597v0c-1.812 0.077-3.404 0.604-4.778 1.583-1.373 0.986-2.426 2.118-3.159 3.397-0.74 1.279-1.092 2.348-1.056 3.207zM175.538 1.742c-2.693 0.044-5.029-0.501-7.008-1.635-1.972-1.134-3.474-2.657-4.506-4.566-1.038-1.91-1.576-3.998-1.613-6.264v0c-0.038-2.333 0.453-4.488 1.474-6.465 1.021-1.97 2.492-3.548 4.412-4.734 1.921-1.178 4.148-1.789 6.681-1.83v0c2.233-0.037 4.244 0.38 6.032 1.251 1.795 0.877 3.199 2.114 4.211 3.711 1.013 1.59 1.537 3.422 1.571 5.495v0c0.016 0.987-0.089 1.688-0.315 2.106-0.22 0.41-0.79 0.64-1.709 0.688v0l-18.791 0.709c0.021 1.246 0.422 2.52 1.203 3.821 0.775 1.307 1.87 2.393 3.284 3.256 1.408 0.864 3.035 1.28 4.881 1.25v0c1.38-0.023 2.56-0.249 3.539-0.678 0.98-0.423 1.745-0.902 2.297-1.438 0.551-0.536 1.212-1.287 1.983-2.253v0c0.222-0.304 0.579-0.46 1.073-0.468v0c0.433-0.007 0.839 0.153 1.218 0.48 0.385 0.32 0.582 0.694 0.588 1.121v0c0.005 0.333-0.119 0.682-0.373 1.046v0c-1.029 1.464-2.286 2.718-3.768 3.762-1.476 1.044-3.598 1.589-6.364 1.635zM165.928-12.751l17.16-0.733c0.327-0.005 0.486-0.238 0.479-0.698v0c-0.032-1.973-0.849-3.563-2.449-4.77-1.593-1.207-3.59-1.791-5.99-1.752v0c-1.813 0.03-3.419 0.516-4.816 1.459-1.398 0.95-2.48 2.054-3.246 3.314-0.773 1.26-1.152 2.319-1.138 3.18zM205.764-23.763c5.553-0.002 8.331 3.927 8.335 11.787v0l0.004 11.54c0 1.153-0.606 1.73-1.82 1.731v0c-1.32 0-1.98-0.559-1.98-1.679v0l-0.004-11.64c-0.001-2.893-0.329-5.023-0.983-6.39-0.66-1.36-1.844-2.039-3.551-2.039v0c-1.813 0.001-3.293 0.691-4.439 2.072-1.153 1.38-1.959 3.191-2.418 5.431v0c-0.293 1.507-0.439 3.364-0.438 5.57v0l0.043 7.3c0 0.46-0.163 0.813-0.49 1.06-0.327 0.247-0.77 0.37-1.33 0.371v0c-0.627 0-1.103-0.13-1.43-0.39-0.327-0.267-0.49-0.613-0.49-1.04v0c-0.001-2.927-0.069-6.493-0.204-10.7v0c-0.101-2.433-0.152-4.59-0.152-6.47v0c0-0.82-0.091-1.467-0.271-1.939-0.18-0.48-0.534-1.146-1.061-2v0c-0.133-0.2-0.2-0.43-0.2-0.69v0c0-0.4 0.223-0.77 0.669-1.11 0.44-0.347 0.873-0.52 1.3-0.521v0c0.433 0 0.88 0.313 1.341 0.94v0c0.36 0.527 0.697 1.16 1.01 1.899 0.314 0.74 0.471 1.436 0.471 2.09v0l0 0.54c0.586-1.64 1.539-3.004 2.859-4.091 1.313-1.087 3.056-1.631 5.229-1.632zM258.173-31.838c0.491 0.112 0.873 0.305 1.146 0.578 0.267 0.267 0.394 0.663 0.382 1.19v0c-0.013 0.527-0.17 0.949-0.471 1.268-0.301 0.326-0.714 0.449-1.24 0.37v0c-1.774-0.277-3.333-0.481-4.676-0.614-1.344-0.126-2.856-0.21-4.536-0.25v0c-1.313-0.032-3.287-0.017-5.922 0.046v0c0.216 3.46 0.286 7.409 0.211 11.848v0c1.215-0.07 2.63-0.086 4.243-0.046v0c3.352 0.082 5.929 0.261 7.729 0.538v0c0.525 0.079 0.907 0.285 1.145 0.618 0.239 0.333 0.352 0.732 0.341 1.199v0c-0.011 0.46-0.15 0.84-0.418 1.14-0.274 0.307-0.704 0.436-1.29 0.389v0c-2.369-0.218-4.916-0.36-7.642-0.427v0c-1.513-0.037-2.91-0.021-4.192 0.048v0c-0.134 5.485-0.413 10.13-0.839 13.934v0c-0.071 0.465-0.277 0.83-0.617 1.095-0.333 0.272-0.78 0.401-1.34 0.388v0c-0.593-0.014-1.059-0.173-1.399-0.474-0.333-0.302-0.477-0.682-0.432-1.141v0c0.417-3.711 0.707-8.229 0.87-13.553v0l-2.177 0.247c-0.461 0.055-0.828-0.087-1.1-0.427-0.272-0.333-0.402-0.763-0.388-1.29v0c0.026-1.053 0.583-1.633 1.672-1.74v0c1.056-0.101 1.748-0.164 2.076-0.189v0c0.081-4.706-0.018-8.723-0.297-12.051v0l-1.381 0.016c-0.661 0.017-1.127-0.124-1.4-0.424-0.273-0.307-0.402-0.757-0.387-1.35v0c0.012-0.493 0.145-0.883 0.398-1.17 0.254-0.287 0.694-0.44 1.322-0.458v0l1.182-0.071-0.036-0.591c-0.02-0.561 0.148-1.003 0.503-1.329 0.355-0.318 0.845-0.47 1.471-0.454v0c1.146 0.028 1.771 0.67 1.874 1.926v0l0.042 0.341c2.009-0.051 4.016-0.052 6.022-0.003v0c2.133 0.052 4.061 0.159 5.783 0.321 1.723 0.155 2.979 0.339 3.768 0.552zM276.318-22.466c2.105 0.08 3.725 0.806 4.861 2.177 1.128 1.377 1.656 3.019 1.583 4.924v0c-0.069 1.812-0.666 3.214-1.792 4.205-1.119 0.991-2.534 1.454-4.246 1.389v0c-0.653-0.025-1.115-0.139-1.388-0.343-0.272-0.211-0.398-0.579-0.378-1.105v0c0.033-0.853 0.459-1.28 1.28-1.282v0c2.146-0.118 3.255-1.13 3.328-3.036v0c0.039-1.019-0.208-1.899-0.739-2.64-0.532-0.748-1.424-1.145-2.677-1.193v0c-1.312-0.05-2.473 0.466-3.482 1.549-1.015 1.082-1.835 2.442-2.457 4.079-0.623 1.637-1.012 3.26-1.167 4.869v0c-0.315 3.01-0.524 5.864-0.627 8.562v0c-0.051 1.346-0.208 2.227-0.471 2.644-0.263 0.417-0.754 0.612-1.473 0.584v0c-0.726-0.028-1.223-0.217-1.49-0.567-0.267-0.357-0.384-0.962-0.351-1.815v0l0.31-9.425c0.083-2.165 0.029-5.029-0.162-8.592v0c-0.121-2.079-0.181-3.563-0.181-4.45v0c-0.013-0.528 0.152-0.925 0.496-1.192 0.337-0.267 0.802-0.39 1.395-0.367v0c1.019 0.039 1.543 0.553 1.573 1.541v0c0.114 2.079 0.15 4.105 0.108 6.078v0c0.642-2.144 1.676-3.799 3.102-4.965 1.425-1.16 3.107-1.703 5.045-1.629zM311.392 1.485c0.456 0.091 0.795 0.243 1.017 0.455 0.216 0.205 0.31 0.571 0.282 1.097v0c-0.027 0.493-0.171 0.882-0.434 1.168-0.262 0.28-0.606 0.408-1.032 0.386v0c-1.345-0.072-2.325-0.339-2.941-0.8-0.623-0.461-1.132-1.296-1.528-2.505v0c-1.607 2.317-4.298 3.374-8.072 3.17v0c-2.663-0.143-4.781-0.848-6.356-2.114-1.581-1.273-2.675-2.841-3.282-4.703-0.608-1.855-0.857-3.802-0.747-5.839v0c0.119-2.203 0.673-4.25 1.662-6.139 0.99-1.89 2.378-3.377 4.166-4.463 1.788-1.092 3.88-1.574 6.277-1.445v0c1.644 0.088 3.058 0.495 4.24 1.22 1.176 0.718 2.079 1.687 2.708 2.91v0l0.277-1.618c0.132-1.208 0.724-1.784 1.776-1.727v0c0.659 0.035 1.153 0.219 1.482 0.55 0.323 0.324 0.443 0.701 0.36 1.131v0l-0.216 1.221c-0.307 1.365-0.55 2.784-0.73 4.257v0c-0.161 1.247-0.297 2.918-0.41 5.015v0l-0.183 3.405c-0.076 1.411-0.092 2.455-0.048 3.132 0.044 0.677 0.189 1.202 0.436 1.575 0.24 0.373 0.672 0.594 1.296 0.661zM305.966-4.135c0.116-1.543 0.24-3.529 0.371-5.958v0c0.087-1.611-0.189-2.934-0.828-3.971-0.632-1.042-1.429-1.803-2.391-2.281-0.962-0.479-1.889-0.743-2.781-0.791v0c-1.737-0.093-3.215 0.321-4.434 1.244-1.218 0.923-2.14 2.108-2.765 3.556-0.619 1.449-0.967 2.896-1.044 4.34v0c-0.124 2.297 0.331 4.387 1.364 6.273 1.034 1.885 2.848 2.897 5.445 3.037v0c1.937 0.104 3.565-0.312 4.884-1.25 1.319-0.93 2.045-2.33 2.179-4.199zM332.702-18.997c5.54 0.387 8.036 4.501 7.487 12.343v0l-0.804 11.511c-0.08 1.151-0.726 1.683-1.937 1.599v0c-1.317-0.092-1.936-0.697-1.858-1.814v0l0.812-11.611c0.202-2.886 0.025-5.034-0.532-6.443-0.564-1.403-1.697-2.164-3.399-2.283v0c-1.809-0.126-3.333 0.459-4.573 1.755-1.247 1.296-2.178 3.046-2.793 5.248v0c-0.398 1.483-0.674 3.324-0.828 5.526v0l-0.469 7.285c-0.032 0.459-0.22 0.8-0.563 1.023-0.343 0.223-0.794 0.315-1.352 0.277v0c-0.625-0.044-1.092-0.207-1.4-0.489-0.307-0.289-0.446-0.646-0.416-1.072v0c0.204-2.92 0.386-6.482 0.547-10.688v0c0.07-2.434 0.171-4.589 0.302-6.464v0c0.057-0.818 0.013-1.469-0.134-1.954-0.146-0.491-0.452-1.181-0.918-2.069v0c-0.119-0.209-0.17-0.443-0.152-0.703v0c0.028-0.399 0.277-0.753 0.746-1.06 0.463-0.315 0.907-0.458 1.333-0.428v0c0.432 0.03 0.856 0.374 1.271 1.031v0c0.322 0.55 0.614 1.206 0.875 1.966 0.261 0.76 0.369 1.466 0.324 2.117v0l-0.038 0.539c0.7-1.595 1.746-2.889 3.138-3.881 1.386-0.992 3.163-1.413 5.331-1.261zM357.303 8.131c-2.624-0.226-4.816-0.95-6.578-2.172-1.754-1.228-3.023-2.773-3.806-4.634-0.783-1.867-1.08-3.9-0.891-6.099v0c0.2-2.325 0.879-4.461 2.037-6.409 1.158-1.948 2.733-3.462 4.727-4.541 1.993-1.08 4.282-1.508 6.865-1.286v0c2.816 0.242 5.06 1.111 6.732 2.606 1.671 1.495 2.82 3.227 3.447 5.195v0c0.103 0.277 0.142 0.561 0.117 0.853v0c-0.031 0.359-0.214 0.657-0.549 0.896-0.328 0.233-0.771 0.325-1.328 0.278v0c-0.392-0.034-0.712-0.168-0.959-0.404-0.241-0.235-0.458-0.591-0.651-1.07v0c-0.382-1.318-1.165-2.482-2.349-3.494-1.184-1.012-2.676-1.595-4.476-1.75v0c-1.8-0.155-3.432 0.183-4.895 1.014-1.457 0.832-2.611 1.997-3.463 3.496-0.858 1.492-1.361 3.105-1.51 4.838v0c-0.22 2.557 0.352 4.738 1.715 6.541 1.364 1.797 3.421 2.814 6.172 3.051v0c1.773 0.153 3.304-0.06 4.591-0.639 1.288-0.585 2.295-1.365 3.022-2.34 0.727-0.981 1.168-1.991 1.324-3.027v0c0.031-0.365 0.179-0.644 0.444-0.835 0.264-0.191 0.642-0.266 1.133-0.224v0c1.242 0.107 1.817 0.702 1.723 1.784v0c-0.124 1.441-0.706 2.843-1.747 4.206-1.041 1.362-2.496 2.452-4.366 3.268-1.863 0.81-4.023 1.109-6.481 0.897zM386.722 11.207c-2.679-0.274-4.934-1.092-6.765-2.452-1.824-1.36-3.136-3.049-3.935-5.067-0.805-2.019-1.092-4.156-0.861-6.411v0c0.238-2.321 0.98-4.403 2.228-6.246 1.247-1.836 2.894-3.229 4.941-4.178 2.047-0.943 4.33-1.286 6.85-1.028v0c2.222 0.227 4.169 0.879 5.842 1.955 1.678 1.083 2.926 2.478 3.743 4.183 0.818 1.699 1.121 3.579 0.91 5.642v0c-0.101 0.982-0.288 1.666-0.562 2.054-0.267 0.381-0.86 0.542-1.778 0.481v0l-18.743-1.517c-0.127 1.24 0.121 2.552 0.743 3.936 0.615 1.39 1.574 2.597 2.876 3.622 1.296 1.024 2.862 1.63 4.699 1.818v0c1.373 0.141 2.571 0.056 3.595-0.255 1.023-0.304 1.84-0.69 2.45-1.156 0.611-0.467 1.356-1.134 2.236-2.003v0c0.256-0.275 0.629-0.388 1.12-0.338v0c0.431 0.044 0.815 0.251 1.153 0.621 0.345 0.364 0.495 0.758 0.452 1.182v0c-0.034 0.332-0.199 0.663-0.494 0.995v0c-1.195 1.332-2.591 2.429-4.187 3.291-1.589 0.863-3.76 1.153-6.513 0.871zM378.893-4.321l17.127 1.301c0.325 0.033 0.511-0.179 0.557-0.637v0c0.201-1.963-0.422-3.639-1.867-5.026-1.44-1.387-3.353-2.203-5.741-2.448v0c-1.804-0.185-3.456 0.109-4.955 0.88-1.5 0.778-2.705 1.747-3.615 2.907-0.916 1.159-1.418 2.167-1.506 3.023z" opacity="1" transform="matrix(1,0,0,1,0,0)" fill="#ffffff" class="wordmark-text-0" data-fill-palette-color="primary" id="text-0"></path></svg></g></svg></g></svg></g></svg></g><g transform="matrix(1,0,0,1,142.72238583489985,0)"><svg viewBox="0 0 110.0752283302003 74.80183789454972" height="74.80183789454972" width="110.0752283302003"><g><svg xmlns="http://www.w3.org/2000/svg" xmlns:xlink="http://www.w3.org/1999/xlink" version="1.0" x="0" y="0" viewBox="4.949844352383267 19.4 90.05933762356268 61.199999999999996" enable-background="new 0 0 100 100" xml:space="preserve" height="74.80183789454972" width="110.0752283302003" class="icon-icon-0" data-fill-palette-color="accent" id="icon-0"><path d="M95 53.4c0.2-7.7-2.9-13-6.1-15.4-0.3-4-4.9-10.7-6.8-12.6-1.6-1.7-6.1-6-14.1-6-3.2 0-7 0.7-11.4 2.6-0.9 0.4-1.9 1-2.9 1.7-2.6-1.1-6.3-2.2-11.1-2.2-0.5 0-0.9 0-1.4 0-4.9 0.2-8.2 3.1-9 5.4-0.5-0.1-1.2-0.1-1.9-0.1-1.1 0-2.3 0.1-3.7 0.3-5 0.8-13.4 4.2-15.5 7.6-0.4 0.6-0.5 1.2-0.4 1.8-3.1 1.6-4.5 4.2-5.3 7.4-1 3.8-1.1 17.1 8.1 17.1 0.3 0 0.6 0 0.9 0 5.3-0.5 0.1-4.9 10.8-9.9 0.4-0.2 0.8-0.5 1.1-0.7 0.1 0.1 0.2 0.1 0.3 0.2 1 0.8 3.4 1.8 5.2 1.8 0.5 0 1-0.1 1.4-0.3 0.1 0.2 0.2 0.4 0.3 0.6 0.9 1.9 3.2 2.6 5.7 2.6 0.7 0 1.5-0.1 2.3-0.2 2.6 4.2 9.4 5.8 12 6 0.3 1.4 0.9 2.7 1.8 3.8-2.3 0.4-4.6 0.7-6.7 0.8-7.4 0.4-14.8-0.4-14.5 5.8 0.2 5.5 8.4 7.5 19.9 8.7 2.6 0.3 5.1 0.4 7.7 0.4 4.3 0 8.4-0.5 11.5-1.6 0.1 0 0.3 0 0.4 0 3.7 0 11.9-2.2 15.4-5.4 3.1-2.9 5-7.2 4.1-11.9C94 61 94.8 59.5 95 53.4zM23.8 48c-6.8 3.2-8.5 6.5-9.5 9.4 0 0.1-0.1 0.2-0.1 0.2 0 0 0 0-0.1 0-0.2 0-0.4 0-0.6 0-1.4 0-2.3-0.4-3.1-1.4-2.2-2.8-2.2-9-1.6-11.4 0.9-3.4 2.2-4.9 5.3-5.9 0.4-0.1 0.7-0.2 1.1-0.2 3 0 7.8 3.8 8.7 7.9C24.2 47.8 23.9 47.9 23.8 48zM31.5 48.9c-1-0.1-2.3-0.7-2.7-1-0.3-0.2-0.7-0.5-1.3-0.9-0.4-4.8-6.3-11.5-12.1-11.7 2.6-1.9 7.8-4.1 11.7-4.7 1.1-0.2 2.2-0.3 3.2-0.3 0.4 0 0.7 0 1 0-0.7 4.1-1.4 11.1 0.5 17.9C31.7 48.5 31.6 48.7 31.5 48.9zM40.5 51.7C40.5 51.7 40.5 51.8 40.5 51.7c-0.4 0.1-0.9 0.2-1.3 0.2-1.7 0-2.5-0.5-2.6-0.6-4.1-8.7-2.2-19.9-1.2-23.1 0.3-0.9 2.3-3 5.9-3.1 0.4 0 0.8 0 1.2 0 3.4 0 6.1 0.6 8.2 1.3C45.5 31.7 40.5 41.2 40.5 51.7zM75.8 72.2c-0.9 4.5-10.2 5-14.2 5-2.3 0-4.7-0.1-7.3-0.4-6.2-0.6-16.6-2.1-16.7-5.3 0-0.2 0-0.7 0.1-0.9 0.9-0.9 5.1-1.1 8-1.1 1 0 2.1-0.1 3.1-0.1 3.9-0.2 8.3-1.1 12.2-1.9 3.5-0.7 6.7-1.4 8.7-1.4 0.1 0 0.2 0 0.4 0 1.8 0.1 3.8 1.1 4.9 2.5C75.8 69.7 76.1 70.9 75.8 72.2zM86.6 71.1c-1.6 1.5-4.9 2.8-8 3.7 0.3-0.6 0.5-1.2 0.7-1.8 1.2-6-4.3-10.1-9-10.3-0.2 0-0.4 0-0.5 0-1.3 0-2.9 0.2-4.6 0.5 1.8-3.8 6.2-7.9 12.6-9.1 0.7-0.1 1.4-0.2 2.1-0.2 1.5 0 6.4 0.5 9.2 6.6C91 64.7 89 68.8 86.6 71.1zM79.9 38.8c3 0 5.1 0.8 6.1 1.3 2.8 1.4 5.8 6.1 5.6 13.1-0.1 1.8-0.2 3-0.3 3.9-2.3-3.8-6.1-6.9-11.4-6.9-0.9 0-1.8 0.1-2.8 0.3-7.6 1.5-13.4 6.6-15.5 11.9 0 0-0.2 0.5-0.3 1.4-0.5 0.1-1.1 0.2-1.6 0.3-0.6-0.4-1.2-0.9-1.6-1.4-1.3-1.5-1.5-3.5-0.8-5.8 2-6.8 6.1-11.8 12.5-15.3C73.1 39.8 76.6 38.8 79.9 38.8zM79.9 35.4c-3 0-7.4 0.8-11.9 3.2-8.6 4.7-12.4 11.4-14.2 17.3-0.2 0.6-0.3 1.2-0.4 1.7 0 0 0 0-0.1 0-2.6-0.3-9.4-2.2-9.4-6 0-13.5 9.1-24.5 14-26.6 3.6-1.5 7-2.3 10.1-2.3 5.7 0 9.4 2.6 11.5 4.9 2 2.1 4.2 5.8 5.2 8.4C83.3 35.6 81.9 35.4 79.9 35.4L79.9 35.4z" fill="#002f81" data-fill-palette-color="accent"></path></svg></g></svg></g><g></g></svg></g><defs></defs></svg><rect width="395.52" height="134.61665002610775" fill="none" stroke="none" visibility="hidden"></rect></g></svg></g></svg>